<svg id="visual" viewBox="0 0 960 300" width="960" height="300" xmlns="http://www.w3.org/2000/svg" xmlns:xlink="http://www.w3.org/1999/xlink" version="1.1"><rect x="0" y="0" width="960" height="300" fill="#0f0f10"></rect><path d="M0 204L12.3 205.8C24.7 207.7 49.3 211.3 74 210C98.7 208.7 123.3 202.3 148 203.3C172.7 204.3 197.3 212.7 221.8 214.7C246.3 216.7 270.7 212.3 295.2 206.3C319.7 200.3 344.3 192.7 369 189.7C393.7 186.7 418.3 188.3 443 194.3C467.7 200.3 492.3 210.7 517 211.2C541.7 211.7 566.3 202.3 591 201.3C615.7 200.3 640.3 207.7 664.8 205.3C689.3 203 713.7 191 738.2 187.3C762.7 183.7 787.3 188.3 812 195C836.7 201.7 861.3 210.3 886 214.7C910.7 219 935.3 219 947.7 219L960 219L960 301L947.7 301C935.3 301 910.7 301 886 301C861.3 301 836.7 301 812 301C787.3 301 762.7 301 738.2 301C713.7 301 689.3 301 664.8 301C640.3 301 615.7 301 591 301C566.3 301 541.7 301 517 301C492.3 301 467.7 301 443 301C418.3 301 393.7 301 369 301C344.3 301 319.7 301 295.2 301C270.7 301 246.3 301 221.8 301C197.3 301 172.7 301 148 301C123.3 301 98.7 301 74 301C49.3 301 24.7 301 12.3 301L0 301Z" fill="#ff0066"></path><path d="M0 223L12.3 218.7C24.7 214.3 49.3 205.7 74 200.8C98.7 196 123.3 195 148 200.3C172.7 205.7 197.3 217.3 221.8 222.7C246.3 228 270.7 227 295.2 224.7C319.7 222.3 344.3 218.7 369 214.7C393.7 210.7 418.3 206.3 443 208.3C467.7 210.3 492.3 218.7 517 218.7C541.7 218.7 566.3 210.3 591 206.2C615.7 202 640.3 202 664.8 202C689.3 202 713.7 202 738.2 206.3C762.7 210.7 787.3 219.3 812 221.5C836.7 223.7 861.3 219.3 886 216.8C910.7 214.3 935.3 213.7 947.7 213.3L960 213L960 301L947.7 301C935.3 301 910.7 301 886 301C861.3 301 836.7 301 812 301C787.3 301 762.7 301 738.2 301C713.7 301 689.3 301 664.8 301C640.3 301 615.7 301 591 301C566.3 301 541.7 301 517 301C492.3 301 467.7 301 443 301C418.3 301 393.7 301 369 301C344.3 301 319.7 301 295.2 301C270.7 301 246.3 301 221.8 301C197.3 301 172.7 301 148 301C123.3 301 98.7 301 74 301C49.3 301 24.7 301 12.3 301L0 301Z" fill="#cc2480"></path><path d="M0 244L12.3 244.3C24.7 244.7 49.3 245.3 74 245.2C98.7 245 123.3 244 148 240.3C172.7 236.7 197.3 230.3 221.8 228.5C246.3 226.7 270.7 229.3 295.2 231.8C319.7 234.3 344.3 236.7 369 237.2C393.7 237.7 418.3 236.3 443 235.5C467.7 234.7 492.3 234.3 517 235.7C541.7 237 566.3 240 591 239.7C615.7 239.3 640.3 235.7 664.8 234.2C689.3 232.7 713.7 233.3 738.2 234.2C762.7 235 787.3 236 812 237.7C836.7 239.3 861.3 241.7 886 237.3C910.7 233 935.3 222 947.7 216.5L960 211L960 301L947.7 301C935.3 301 910.7 301 886 301C861.3 301 836.7 301 812 301C787.3 301 762.7 301 738.2 301C713.7 301 689.3 301 664.8 301C640.3 301 615.7 301 591 301C566.3 301 541.7 301 517 301C492.3 301 467.7 301 443 301C418.3 301 393.7 301 369 301C344.3 301 319.7 301 295.2 301C270.7 301 246.3 301 221.8 301C197.3 301 172.7 301 148 301C123.3 301 98.7 301 74 301C49.3 301 24.7 301 12.3 301L0 301Z" fill="#903886"></path><path d="M0 230L12.3 231.3C24.7 232.7 49.3 235.3 74 239.2C98.7 243 123.3 248 148 249.3C172.7 250.7 197.3 248.3 221.8 249C246.3 249.7 270.7 253.3 295.2 255.3C319.7 257.3 344.3 257.7 369 253.7C393.7 249.7 418.3 241.3 443 240.3C467.7 239.3 492.3 245.7 517 250C541.7 254.3 566.3 256.7 591 254.7C615.7 252.7 640.3 246.3 664.8 241.8C689.3 237.3 713.7 234.7 738.2 234C762.7 233.3 787.3 234.7 812 234.5C836.7 234.3 861.3 232.7 886 235.3C910.7 238 935.3 245 947.7 248.5L960 252L960 301L947.7 301C935.3 301 910.7 301 886 301C861.3 301 836.7 301 812 301C787.3 301 762.7 301 738.2 301C713.7 301 689.3 301 664.8 301C640.3 301 615.7 301 591 301C566.3 301 541.7 301 517 301C492.3 301 467.7 301 443 301C418.3 301 393.7 301 369 301C344.3 301 319.7 301 295.2 301C270.7 301 246.3 301 221.8 301C197.3 301 172.7 301 148 301C123.3 301 98.7 301 74 301C49.3 301 24.7 301 12.3 301L0 301Z" fill="#583c77"></path><path d="M0 273L12.3 272.3C24.7 271.7 49.3 270.3 74 269.7C98.7 269 123.3 269 148 268.7C172.7 268.3 197.3 267.7 221.8 265.5C246.3 263.3 270.7 259.7 295.2 260.2C319.7 260.7 344.3 265.3 369 265.3C393.7 265.3 418.3 260.7 443 259.5C467.7 258.3 492.3 260.7 517 260.5C541.7 260.3 566.3 257.7 591 257C615.7 256.3 640.3 257.7 664.8 258.7C689.3 259.7 713.7 260.3 738.2 260C762.7 259.7 787.3 258.3 812 256.5C836.7 254.7 861.3 252.3 886 251.5C910.7 250.7 935.3 251.3 947.7 251.7L960 252L960 301L947.7 301C935.3 301 910.7 301 886 301C861.3 301 836.7 301 812 301C787.3 301 762.7 301 738.2 301C713.7 301 689.3 301 664.8 301C640.3 301 615.7 301 591 301C566.3 301 541.7 301 517 301C492.3 301 467.7 301 443 301C418.3 301 393.7 301 369 301C344.3 301 319.7 301 295.2 301C270.7 301 246.3 301 221.8 301C197.3 301 172.7 301 148 301C123.3 301 98.7 301 74 301C49.3 301 24.7 301 12.3 301L0 301Z" fill="#2f3558"></path><path d="M0 271L12.3 272C24.7 273 49.3 275 74 275.3C98.7 275.7 123.3 274.3 148 274.8C172.7 275.3 197.3 277.7 221.8 277C246.3 276.3 270.7 272.7 295.2 272.7C319.7 272.7 344.3 276.3 369 277.3C393.7 278.3 418.3 276.7 443 277C467.7 277.3 492.3 279.7 517 279.5C541.7 279.3 566.3 276.7 591 276.2C615.7 275.7 640.3 277.3 664.8 276.3C689.3 275.3 713.7 271.7 738.2 270.5C762.7 269.3 787.3 270.7 812 271.7C836.7 272.7 861.3 273.3 886 274.7C910.7 276 935.3 278 947.7 279L960 280L960 301L947.7 301C935.3 301 910.7 301 886 301C861.3 301 836.7 301 812 301C787.3 301 762.7 301 738.2 301C713.7 301 689.3 301 664.8 301C640.3 301 615.7 301 591 301C566.3 301 541.7 301 517 301C492.3 301 467.7 301 443 301C418.3 301 393.7 301 369 301C344.3 301 319.7 301 295.2 301C270.7 301 246.3 301 221.8 301C197.3 301 172.7 301 148 301C123.3 301 98.7 301 74 301C49.3 301 24.7 301 12.3 301L0 301Z" fill="#202731"></path></svg>