<svg id="visual" viewBox="0 0 960 300" width="960" height="300" xmlns="http://www.w3.org/2000/svg" xmlns:xlink="http://www.w3.org/1999/xlink" version="1.1"><rect x="0" y="0" width="960" height="300" fill="#0f0f10"></rect><path d="M0 91L22.8 91.7C45.7 92.3 91.3 93.7 137 91.2C182.7 88.7 228.3 82.3 274 81.3C319.7 80.3 365.3 84.7 411.2 91.8C457 99 503 109 548.8 107.2C594.7 105.3 640.3 91.7 686 91.7C731.7 91.7 777.3 105.3 823 112.8C868.7 120.3 914.3 121.7 937.2 122.3L960 123L960 0L937.2 0C914.3 0 868.7 0 823 0C777.3 0 731.7 0 686 0C640.3 0 594.7 0 548.8 0C503 0 457 0 411.2 0C365.3 0 319.7 0 274 0C228.3 0 182.7 0 137 0C91.3 0 45.7 0 22.8 0L0 0Z" fill="#fa7268"></path><path d="M0 95L22.8 90.8C45.7 86.7 91.3 78.3 137 75.8C182.7 73.3 228.3 76.7 274 76.3C319.7 76 365.3 72 411.2 74.3C457 76.7 503 85.3 548.8 87.7C594.7 90 640.3 86 686 84.7C731.7 83.3 777.3 84.7 823 83.8C868.7 83 914.3 80 937.2 78.5L960 77L960 0L937.2 0C914.3 0 868.7 0 823 0C777.3 0 731.7 0 686 0C640.3 0 594.7 0 548.8 0C503 0 457 0 411.2 0C365.3 0 319.7 0 274 0C228.3 0 182.7 0 137 0C91.3 0 45.7 0 22.8 0L0 0Z" fill="#f3665b"></path><path d="M0 61L22.8 61.2C45.7 61.3 91.3 61.7 137 58.7C182.7 55.7 228.3 49.3 274 49.2C319.7 49 365.3 55 411.2 57C457 59 503 57 548.8 60.2C594.7 63.3 640.3 71.7 686 70.5C731.7 69.3 777.3 58.7 823 54.3C868.7 50 914.3 52 937.2 53L960 54L960 0L937.2 0C914.3 0 868.7 0 823 0C777.3 0 731.7 0 686 0C640.3 0 594.7 0 548.8 0C503 0 457 0 411.2 0C365.3 0 319.7 0 274 0C228.3 0 182.7 0 137 0C91.3 0 45.7 0 22.8 0L0 0Z" fill="#ec594d"></path><path d="M0 42L22.8 43.7C45.7 45.3 91.3 48.7 137 46.3C182.7 44 228.3 36 274 34.7C319.7 33.3 365.3 38.7 411.2 41.8C457 45 503 46 548.8 43.7C594.7 41.3 640.3 35.7 686 36.3C731.7 37 777.3 44 823 44.7C868.7 45.3 914.3 39.7 937.2 36.8L960 34L960 0L937.2 0C914.3 0 868.7 0 823 0C777.3 0 731.7 0 686 0C640.3 0 594.7 0 548.8 0C503 0 457 0 411.2 0C365.3 0 319.7 0 274 0C228.3 0 182.7 0 137 0C91.3 0 45.7 0 22.8 0L0 0Z" fill="#e54c3f"></path><path d="M0 14L22.8 17.5C45.7 21 91.3 28 137 31.2C182.7 34.3 228.3 33.7 274 30.7C319.7 27.7 365.3 22.3 411.2 21.7C457 21 503 25 548.8 24.8C594.7 24.7 640.3 20.3 686 17.8C731.7 15.3 777.3 14.7 823 15.5C868.7 16.3 914.3 18.7 937.2 19.8L960 21L960 0L937.2 0C914.3 0 868.7 0 823 0C777.3 0 731.7 0 686 0C640.3 0 594.7 0 548.8 0C503 0 457 0 411.2 0C365.3 0 319.7 0 274 0C228.3 0 182.7 0 137 0C91.3 0 45.7 0 22.8 0L0 0Z" fill="#dd3f31"></path></svg>