<svg id="visual" viewBox="0 0 960 300" width="960" height="300" xmlns="http://www.w3.org/2000/svg" xmlns:xlink="http://www.w3.org/1999/xlink" version="1.1"><rect x="0" y="0" width="960" height="300" fill="#0f0f10"></rect><path d="M0 94L12.3 92.2C24.7 90.3 49.3 86.7 74 88C98.7 89.3 123.3 95.7 148 94.7C172.7 93.7 197.3 85.3 221.8 83.3C246.3 81.3 270.7 85.7 295.2 91.7C319.7 97.7 344.3 105.3 369 108.3C393.7 111.3 418.3 109.7 443 103.7C467.7 97.7 492.3 87.3 517 86.8C541.7 86.3 566.3 95.7 591 96.7C615.7 97.7 640.3 90.3 664.8 92.7C689.3 95 713.7 107 738.2 110.7C762.7 114.3 787.3 109.7 812 103C836.7 96.3 861.3 87.7 886 83.3C910.7 79 935.3 79 947.7 79L960 79L960 0L947.7 0C935.3 0 910.7 0 886 0C861.3 0 836.7 0 812 0C787.3 0 762.7 0 738.2 0C713.7 0 689.3 0 664.8 0C640.3 0 615.7 0 591 0C566.3 0 541.7 0 517 0C492.3 0 467.7 0 443 0C418.3 0 393.7 0 369 0C344.3 0 319.7 0 295.2 0C270.7 0 246.3 0 221.8 0C197.3 0 172.7 0 148 0C123.3 0 98.7 0 74 0C49.3 0 24.7 0 12.3 0L0 0Z" fill="#202731"></path><path d="M0 75L12.3 79.3C24.7 83.7 49.3 92.3 74 97.2C98.7 102 123.3 103 148 97.7C172.7 92.3 197.3 80.7 221.8 75.3C246.3 70 270.7 71 295.2 73.3C319.7 75.7 344.3 79.3 369 83.3C393.7 87.3 418.3 91.7 443 89.7C467.7 87.7 492.3 79.3 517 79.3C541.7 79.3 566.3 87.7 591 91.8C615.7 96 640.3 96 664.8 96C689.3 96 713.7 96 738.2 91.7C762.7 87.3 787.3 78.7 812 76.5C836.7 74.3 861.3 78.7 886 81.2C910.7 83.7 935.3 84.3 947.7 84.7L960 85L960 0L947.7 0C935.3 0 910.7 0 886 0C861.3 0 836.7 0 812 0C787.3 0 762.7 0 738.2 0C713.7 0 689.3 0 664.8 0C640.3 0 615.7 0 591 0C566.3 0 541.7 0 517 0C492.3 0 467.7 0 443 0C418.3 0 393.7 0 369 0C344.3 0 319.7 0 295.2 0C270.7 0 246.3 0 221.8 0C197.3 0 172.7 0 148 0C123.3 0 98.7 0 74 0C49.3 0 24.7 0 12.3 0L0 0Z" fill="#2f3558"></path><path d="M0 54L12.3 53.7C24.7 53.3 49.3 52.7 74 52.8C98.7 53 123.3 54 148 57.7C172.7 61.3 197.3 67.7 221.8 69.5C246.3 71.3 270.7 68.7 295.2 66.2C319.7 63.7 344.3 61.3 369 60.8C393.7 60.3 418.3 61.7 443 62.5C467.7 63.3 492.3 63.7 517 62.3C541.7 61 566.3 58 591 58.3C615.7 58.7 640.3 62.3 664.8 63.8C689.3 65.3 713.7 64.7 738.2 63.8C762.7 63 787.3 62 812 60.3C836.7 58.7 861.3 56.3 886 60.7C910.7 65 935.3 76 947.7 81.5L960 87L960 0L947.7 0C935.3 0 910.7 0 886 0C861.3 0 836.7 0 812 0C787.3 0 762.7 0 738.2 0C713.7 0 689.3 0 664.8 0C640.3 0 615.7 0 591 0C566.3 0 541.7 0 517 0C492.3 0 467.7 0 443 0C418.3 0 393.7 0 369 0C344.3 0 319.7 0 295.2 0C270.7 0 246.3 0 221.8 0C197.3 0 172.7 0 148 0C123.3 0 98.7 0 74 0C49.3 0 24.7 0 12.3 0L0 0Z" fill="#583c77"></path><path d="M0 68L12.3 66.7C24.7 65.3 49.3 62.7 74 58.8C98.7 55 123.3 50 148 48.7C172.7 47.3 197.3 49.7 221.8 49C246.3 48.3 270.7 44.7 295.2 42.7C319.7 40.7 344.3 40.3 369 44.3C393.7 48.3 418.3 56.7 443 57.7C467.7 58.7 492.3 52.3 517 48C541.7 43.7 566.3 41.3 591 43.3C615.7 45.3 640.3 51.7 664.8 56.2C689.3 60.7 713.7 63.3 738.2 64C762.7 64.7 787.3 63.3 812 63.5C836.7 63.7 861.3 65.3 886 62.7C910.7 60 935.3 53 947.7 49.5L960 46L960 0L947.7 0C935.3 0 910.7 0 886 0C861.3 0 836.7 0 812 0C787.3 0 762.7 0 738.2 0C713.7 0 689.3 0 664.8 0C640.3 0 615.7 0 591 0C566.3 0 541.7 0 517 0C492.3 0 467.7 0 443 0C418.3 0 393.7 0 369 0C344.3 0 319.7 0 295.2 0C270.7 0 246.3 0 221.8 0C197.3 0 172.7 0 148 0C123.3 0 98.7 0 74 0C49.3 0 24.7 0 12.3 0L0 0Z" fill="#903886"></path><path d="M0 25L12.3 25.7C24.7 26.3 49.3 27.7 74 28.3C98.7 29 123.3 29 148 29.3C172.7 29.7 197.3 30.3 221.8 32.5C246.3 34.7 270.7 38.3 295.2 37.8C319.7 37.3 344.3 32.7 369 32.7C393.7 32.7 418.3 37.3 443 38.5C467.7 39.7 492.3 37.3 517 37.5C541.7 37.7 566.3 40.3 591 41C615.7 41.7 640.3 40.3 664.8 39.3C689.3 38.3 713.7 37.7 738.2 38C762.7 38.3 787.3 39.7 812 41.5C836.7 43.3 861.3 45.7 886 46.5C910.7 47.3 935.3 46.7 947.7 46.3L960 46L960 0L947.7 0C935.3 0 910.7 0 886 0C861.3 0 836.7 0 812 0C787.3 0 762.7 0 738.2 0C713.7 0 689.3 0 664.8 0C640.3 0 615.7 0 591 0C566.3 0 541.7 0 517 0C492.3 0 467.7 0 443 0C418.3 0 393.7 0 369 0C344.3 0 319.7 0 295.2 0C270.7 0 246.3 0 221.8 0C197.3 0 172.7 0 148 0C123.3 0 98.7 0 74 0C49.3 0 24.7 0 12.3 0L0 0Z" fill="#cc2480"></path><path d="M0 27L12.3 26C24.7 25 49.3 23 74 22.7C98.7 22.3 123.3 23.7 148 23.2C172.7 22.7 197.3 20.3 221.8 21C246.3 21.7 270.7 25.3 295.2 25.3C319.7 25.3 344.3 21.7 369 20.7C393.7 19.7 418.3 21.3 443 21C467.7 20.7 492.3 18.3 517 18.5C541.7 18.7 566.3 21.3 591 21.8C615.7 22.3 640.3 20.7 664.8 21.7C689.3 22.7 713.7 26.3 738.2 27.5C762.7 28.7 787.3 27.3 812 26.3C836.7 25.3 861.3 24.7 886 23.3C910.7 22 935.3 20 947.7 19L960 18L960 0L947.7 0C935.3 0 910.7 0 886 0C861.3 0 836.7 0 812 0C787.3 0 762.7 0 738.2 0C713.7 0 689.3 0 664.8 0C640.3 0 615.7 0 591 0C566.3 0 541.7 0 517 0C492.3 0 467.7 0 443 0C418.3 0 393.7 0 369 0C344.3 0 319.7 0 295.2 0C270.7 0 246.3 0 221.8 0C197.3 0 172.7 0 148 0C123.3 0 98.7 0 74 0C49.3 0 24.7 0 12.3 0L0 0Z" fill="#ff0066"></path></svg>